<?xml version="1.0" encoding="UTF-8"?>
<svg width="64px" height="64px" viewBox="0 0 24 24" version="1.1" xmlns="http://www.w3.org/2000/svg">
    <g stroke="none" stroke-width="1" fill="none" fill-rule="evenodd">
        <path d="M14,13 L14,17 C14,17.5522847 13.5522847,18 13,18 L11,18 C10.4477153,18 10,17.5522847 10,17 L10,13 L7,13 C6.44771525,13 6,12.5522847 6,12 C6,11.7347835 6.10535684,11.4804296 6.29289322,11.2928932 L11.2928932,6.29289322 C11.6834175,5.90236893 12.3165825,5.90236893 12.7071068,6.29289322 L17.7071068,11.2928932 C18.0976311,11.6834175 18.0976311,12.3165825 17.7071068,12.7071068 C17.5195704,12.8946432 17.2652165,13 17,13 L14,13 Z" fill="#4a90e2"/>
    </g>
</svg>
